<svg xmlns="[http://www.w3.org/2000/svg](http://www.w3.org/2000/svg)" width="256" height="256" viewBox="0 0 256 256"><path fill="#41D1FF" d="M208.2 25.3l-81.8 153.2c-3 5.6-12.5 5.6-15.5 0L27.8 25.3a9.8 9.8 0 0 1 7.8-15.3h165c4.5 0 8.5 3 7.8 15.3z"/><path fill="#41B883" d="M180.2 10h-53.8a9.8 9.8 0 0 0-7.8 15.3l45.4 85.1c3 5.6 12.5 5.6 15.5 0l45.4-85.1A9.8 9.8 0 0 0 180.2 10z"/><path fill="#34495E" d="M126.4 10h-31.8a9.8 9.8 0 0 0-7.8 15.3l39.6 74.2c3 5.6 12.5 5.6 15.5 0l39.6-74.2A9.8 9.8 0 0 0 126.4 10z"/></svg>